<?xml version="1.0" encoding="UTF-8"?>
<svg width="400" height="400" version="1.1" viewBox="0 0 400 400" xmlns="http://www.w3.org/2000/svg">
 <g>
  <path d="m200 0c-110.46 0-200 89.543-200 200s89.543 200 200 200 200-89.543 200-200-89.543-200-200-200zm0 50c82.843 0 150 67.157 150 150s-67.157 150-150 150-150-67.157-150-150 67.157-150 150-150z" fill="#4338ca"/>
  <path d="m200 100c-55.228 0-100 44.772-100 100s44.772 100 100 100 100-44.772 100-100-44.772-100-100-100zm0 50c27.614 0 50 22.386 50 50s-22.386 50-50 50-50-22.386-50-50 22.386-50 50-50z" fill="#22c55e"/>
  <path d="m200 150c-27.614 0-50 22.386-50 50s22.386 50 50 50 50-22.386 50-50-22.386-50-50-50zm0 25c13.807 0 25 11.193 25 25s-11.193 25-25 25-25-11.193-25-25 11.193-25 25-25z" fill="#eab308"/>
  <circle cx="200" cy="200" r="25" fill="#ef4444"/>
 </g>
</svg>